@startuml "Diagrama de Classes"
left to right direction

class Loja{
    -nome: String
    -endereco: String
    -cnpj: String
    -email: String
    -telefone: String
    -proprietario: String
}

class Cliente{
    -nome: String
    -cpf: String
    -endereco: String
    -email: String
    -telefone: String
    -cep: String
}

class Produto{
    -loja: Loja
    -tamanho: float
    -peso: float
    -valor: float
}

class Encomenda{
    -origem: String
    -destino: String
    -codigo: String
    -cliente: Cliente
    -loja: Loja
    -prazo: int
    -modalidade: String
    -produtos: Produto[]
}



class Rastreamento{
    -encomenda: Encomenda
    -cliente: Cliente
    -status: String
    -acompanhamento: String[]
}

Rastreamento "1"--"1" Encomenda: possui >
Rastreamento "1"--"1" Cliente: possui > 
Encomenda "1..*"--"1..*" Produto: possui >
Cliente "1..*"--"0..*" Encomenda: possui >
Loja "1..*"--"1..*" Encomenda: possui >
Loja "1"--"*" Produto: possui >


@enduml